<svg width="45" height="46" viewBox="0 0 45 46" fill="none" xmlns="http://www.w3.org/2000/svg">
<ellipse cx="22.5" cy="23" rx="22.5" ry="23" fill="#5F7FFF"/>
<path d="M20.744 28.44L19.664 26.988C19.344 27.052 19.032 27.084 18.728 27.084C17.936 27.084 17.208 26.9 16.544 26.532C15.888 26.164 15.364 25.652 14.972 24.996C14.588 24.332 14.396 23.588 14.396 22.764C14.396 21.94 14.588 21.2 14.972 20.544C15.364 19.888 15.888 19.376 16.544 19.008C17.208 18.64 17.936 18.456 18.728 18.456C19.52 18.456 20.244 18.64 20.9 19.008C21.564 19.376 22.084 19.888 22.46 20.544C22.844 21.2 23.036 21.94 23.036 22.764C23.036 23.484 22.888 24.144 22.592 24.744C22.304 25.336 21.9 25.828 21.38 26.22L23.228 28.44H20.744ZM16.496 22.764C16.496 23.508 16.696 24.104 17.096 24.552C17.504 24.992 18.048 25.212 18.728 25.212C19.4 25.212 19.936 24.988 20.336 24.54C20.744 24.092 20.948 23.5 20.948 22.764C20.948 22.02 20.744 21.428 20.336 20.988C19.936 20.54 19.4 20.316 18.728 20.316C18.048 20.316 17.504 20.536 17.096 20.976C16.696 21.416 16.496 22.012 16.496 22.764ZM28.497 27L26.745 23.82H26.253V27H24.201V18.576H27.645C28.309 18.576 28.873 18.692 29.337 18.924C29.809 19.156 30.161 19.476 30.393 19.884C30.625 20.284 30.741 20.732 30.741 21.228C30.741 21.788 30.581 22.288 30.261 22.728C29.949 23.168 29.485 23.48 28.869 23.664L30.813 27H28.497ZM26.253 22.368H27.525C27.901 22.368 28.181 22.276 28.365 22.092C28.557 21.908 28.653 21.648 28.653 21.312C28.653 20.992 28.557 20.74 28.365 20.556C28.181 20.372 27.901 20.28 27.525 20.28H26.253V22.368Z" fill="black"/>
<path d="M18.5 10.5H9V19.5" stroke="black" stroke-width="2"/>
<path d="M36.2754 20.2258L36.2245 10.726L27.2246 10.7741" stroke="black" stroke-width="2"/>
<path d="M9.2804 26.7214L9.21976 36.2212L18.2196 36.2786" stroke="black" stroke-width="2"/>
<path d="M26.9928 35.9924L36.4928 36.0076L36.5072 27.0076" stroke="black" stroke-width="2"/>
</svg>
