<svg width="55" height="55" viewBox="0 0 55 55" fill="none" xmlns="http://www.w3.org/2000/svg">
<circle cx="27.5" cy="27.5" r="27.5" fill="#5F7FFF"/>
<path d="M25.744 34.44L24.664 32.988C24.344 33.052 24.032 33.084 23.728 33.084C22.936 33.084 22.208 32.9 21.544 32.532C20.888 32.164 20.364 31.652 19.972 30.996C19.588 30.332 19.396 29.588 19.396 28.764C19.396 27.94 19.588 27.2 19.972 26.544C20.364 25.888 20.888 25.376 21.544 25.008C22.208 24.64 22.936 24.456 23.728 24.456C24.52 24.456 25.244 24.64 25.9 25.008C26.564 25.376 27.084 25.888 27.46 26.544C27.844 27.2 28.036 27.94 28.036 28.764C28.036 29.484 27.888 30.144 27.592 30.744C27.304 31.336 26.9 31.828 26.38 32.22L28.228 34.44H25.744ZM21.496 28.764C21.496 29.508 21.696 30.104 22.096 30.552C22.504 30.992 23.048 31.212 23.728 31.212C24.4 31.212 24.936 30.988 25.336 30.54C25.744 30.092 25.948 29.5 25.948 28.764C25.948 28.02 25.744 27.428 25.336 26.988C24.936 26.54 24.4 26.316 23.728 26.316C23.048 26.316 22.504 26.536 22.096 26.976C21.696 27.416 21.496 28.012 21.496 28.764ZM33.497 33L31.745 29.82H31.253V33H29.201V24.576H32.645C33.309 24.576 33.873 24.692 34.337 24.924C34.809 25.156 35.161 25.476 35.393 25.884C35.625 26.284 35.741 26.732 35.741 27.228C35.741 27.788 35.581 28.288 35.261 28.728C34.949 29.168 34.485 29.48 33.869 29.664L35.813 33H33.497ZM31.253 28.368H32.525C32.901 28.368 33.181 28.276 33.365 28.092C33.557 27.908 33.653 27.648 33.653 27.312C33.653 26.992 33.557 26.74 33.365 26.556C33.181 26.372 32.901 26.28 32.525 26.28H31.253V28.368Z" fill="black"/>
<path d="M23 13H11V25" stroke="black" stroke-width="2"/>
<path d="M44 25L43.9341 12.9427L33 13" stroke="black" stroke-width="2"/>
<path d="M12 32L11.9352 41.9247L24 42" stroke="black" stroke-width="2"/>
<path d="M33 42L43.9836 42.0172L44 32" stroke="black" stroke-width="2"/>
</svg>
