<svg id="Capa_1" enable-background="new 0 0 512.002 512.002" height="512" viewBox="0 0 512.002 512.002" width="512" >
<g>
    <g>
        <g>
        <path d="m235.215 19.408c-24.454 18.008-65.236 52.659-91.884 99.702l112.516 155.09v-234.129z" fill="#fc90d4"/>
        <path d="m276.724 19.165-20.876 20.906v234.13l112.516-155.09c-22.405-45.735-65.78-81.507-91.64-99.946z" fill="#ffbfe7"/>
        <path d="m256.025 53.832c25.174 17.95 66.946 52.326 89.814 96.329l22.526-31.05c-22.405-45.735-65.781-81.506-91.641-99.946l-20.876 20.906v13.616z" fill="#ffb0e1"/>
        </g>
        <g>
        <path d="m7.501 215.117c9.546 28.855 29.851 78.406 66.291 118.323l182.056-59.239-222.348-72.35z" fill="#fc90d4"/>
        <path d="m20.097 175.507 13.403 26.344 222.348 72.35-112.517-155.091c-50.357 7.207-97.732 37.466-123.234 56.397z" fill="#fc5dc2"/>
        </g>
        <g>
        <path d="m122.994 492.477c30.353-.175 83.685-4.202 132.854-26.574v-191.702l-137.419 189.415z" fill="#fc90d4"/>
        <path d="m89.27 468.241 29.16-4.625 137.419-189.415-182.057 59.239c-8.717 50.189 5.379 104.661 15.478 134.801z" fill="#ffbfe7"/>
        </g>
        <g>
        <path d="m422.086 468.187c9.214-28.963 21.869-81.003 15.817-134.747l-182.056-59.239 137.419 189.415z" fill="#fc90d4"/>
        <path d="m437.903 333.44-37.712-12.271c5.808 51.828-5.767 102.055-14.858 131.511l7.934 10.936 28.82 4.571c9.213-28.964 21.868-81.003 15.816-134.747z" fill="#fc7bcc"/>
        <path d="m388.648 492.818 4.618-29.202-137.418-189.415v191.702c44.969 23.811 101.056 27.219 132.8 26.915z" fill="#fc5dc2"/>
        <path d="m388.648 492.818 4.618-29.202-137.418-189.415v191.702c44.969 23.811 101.056 27.219 132.8 26.915z" fill="#fc5dc2"/>
        <path d="m385.318 452.66-.004.024c-30.964.297-85.09-2.938-129.467-25.197v38.416c44.97 23.812 101.056 27.219 132.8 26.915l4.618-29.202z" fill="#fc44b9"/>
        </g>
        <g>
        <path d="m491.443 175.814c-24.659-17.726-70.169-45.86-123.079-56.704l-112.516 155.09 222.348-72.35z" fill="#fc90d4"/>
        <path d="m368.364 119.11-22.747 31.354c51.197 11.231 95.124 38.304 119.378 55.682l13.2-4.295 13.247-26.036c-24.658-17.726-70.168-45.861-123.078-56.705z" fill="#fc7bcc"/>
        <path d="m504.501 215.273-26.305-13.423-222.348 72.35 182.056 59.239c36.509-35.471 57.077-87.838 66.597-118.166z" fill="#ffbfe7"/>
        <path d="m478.196 201.851-14.059 4.575c-9.468 29.835-29.31 79.793-63.943 114.745l37.709 12.27c36.51-35.472 57.077-87.839 66.598-118.167z" fill="#ffb0e1"/>
        </g>
    </g>
    <path d="m507.91 208.593-19.632-10.018 9.85-19.36c1.679-3.299.699-7.33-2.307-9.491-22.857-16.431-68.749-45.368-122.374-57.2-23.831-46.167-67.873-82.001-92.368-99.466-2.985-2.129-7.071-1.787-9.662.807l-15.569 15.591-15.325-15.347c-2.621-2.625-6.767-2.939-9.754-.74-22.667 16.692-64.33 51.458-92.136 98.877-16.32 2.687-33.52 7.85-51.188 15.371-8.922 3.799-3.048 17.598 5.875 13.802 16.165-6.881 31.831-11.645 46.64-14.186l96.271 132.696-197.456-64.249-9.097-17.88c9.51-6.818 19.304-13.178 29.186-18.95 8.374-4.89.809-17.842-7.565-12.952-12.135 7.088-24.137 15.024-35.672 23.587-2.937 2.181-3.873 6.162-2.214 9.423l10.006 19.667-19.326 9.861c-3.298 1.683-4.875 5.521-3.712 9.036 8.848 26.747 28.991 77.173 65.432 118.31-7.82 51.378 6.78 106.293 16.346 134.841 1.061 3.167 4.966 5.553 8.286 5.024l21.749-3.45 3.392 21.45c.577 3.646 3.72 6.329 7.407 6.329h.043c28.136-.162 82.248-3.764 132.575-25.757 40.566 20.399 88.141 26.526 133.109 26.097 3.663-.035 6.764-2.71 7.336-6.328l3.447-21.791 21.409 3.396c3.357.534 7.298-1.914 8.322-5.134 8.541-26.847 21.841-79.499 16.505-134.229 36.481-36.963 56.901-89.984 65.919-118.712 1.095-3.49-.488-7.262-3.748-8.925zm-34.989-12.913-197.453 64.25 96.096-132.456c46.64 10.577 87.233 34.797 110.251 50.727zm-209.573-152.506 14.155-14.176c23.796 17.586 61.182 49.532 82.1 89.417l-96.255 132.676zm-111.081 75.481c24.455-41.155 59.996-72.335 82.242-89.34l13.839 13.859v207.917zm-118.13 91.29 197.472 64.256-155.486 50.593c-31.53-36.016-50.157-79.511-59.429-105.949zm46.338 129.207 155.753-50.681-122.044 168.224-19.766 3.135c-8.929-28.232-20.427-76.093-13.943-120.678zm45.847 126.357 122.026-168.198v163.709c-43.936 18.897-90.988 23.2-118.962 23.862zm290.514-5.749-19.323-3.065-46.215-63.701c-5.695-7.849-17.835.959-12.142 8.809l46.218 63.706-3.134 19.815c-29.569-.22-78.562-4.058-118.892-24.007v-164.006l52.476 72.332c5.695 7.848 17.836-.959 12.142-8.809l-52.498-72.362 155.471 50.589c4.37 47.697-6.086 93.849-14.103 120.699zm19.019-134.874-155.768-50.686 197.472-64.255 17.84 9.104c-9.346 28.094-28.133 73.584-59.544 105.837z"/>
</g>
</svg>