<svg width="252" height="138" viewBox="0 0 252 138" fill="none" xmlns="http://www.w3.org/2000/svg">
<path d="M20 96C23.6117 100.912 27.6214 105.251 33.2778 107.944C44.7088 113.388 59.4349 116.685 72 118.444C79.804 119.537 88.5833 121.427 96.4444 120.778C107.581 119.858 123.666 114.6 130.778 105.556C148.123 83.499 108.51 72.9862 98.1111 91.5556C93.2376 100.258 101.768 110.236 108.556 114.556C120.05 121.87 141.383 126.064 154.222 122.167C173.753 116.238 188.118 102.937 196.778 85C199.15 80.0866 200 74.9301 200 69.5556C200 65.4852 201.345 59.5181 199 56" stroke="#FFEE51" stroke-width="4" stroke-linecap="round" stroke-linejoin="round"/>
<path d="M163 74C170.166 66.8344 176.81 59.1897 183.944 52.0556C186.674 49.3261 187.78 47.9267 191 46.2222C193.041 45.1418 194.649 45.7645 196.889 46.6667C205.964 50.3219 215.34 55.7878 223.944 60.5C227.901 62.6665 232.147 65.1197 236.5 66.4444C238.491 67.0505 242.093 66.1851 243 68" stroke="#FFEE51" stroke-width="4" stroke-linecap="round" stroke-linejoin="round"/>
</svg>
