<svg width="50" height="50" viewBox="0 0 50 50" fill="none" xmlns="http://www.w3.org/2000/svg">
<ellipse cx="25.5" cy="25" rx="22.5" ry="23" fill="#5F7FFF"/>
<path d="M23.744 30.44L22.664 28.988C22.344 29.052 22.032 29.084 21.728 29.084C20.936 29.084 20.208 28.9 19.544 28.532C18.888 28.164 18.364 27.652 17.972 26.996C17.588 26.332 17.396 25.588 17.396 24.764C17.396 23.94 17.588 23.2 17.972 22.544C18.364 21.888 18.888 21.376 19.544 21.008C20.208 20.64 20.936 20.456 21.728 20.456C22.52 20.456 23.244 20.64 23.9 21.008C24.564 21.376 25.084 21.888 25.46 22.544C25.844 23.2 26.036 23.94 26.036 24.764C26.036 25.484 25.888 26.144 25.592 26.744C25.304 27.336 24.9 27.828 24.38 28.22L26.228 30.44H23.744ZM19.496 24.764C19.496 25.508 19.696 26.104 20.096 26.552C20.504 26.992 21.048 27.212 21.728 27.212C22.4 27.212 22.936 26.988 23.336 26.54C23.744 26.092 23.948 25.5 23.948 24.764C23.948 24.02 23.744 23.428 23.336 22.988C22.936 22.54 22.4 22.316 21.728 22.316C21.048 22.316 20.504 22.536 20.096 22.976C19.696 23.416 19.496 24.012 19.496 24.764ZM31.497 29L29.745 25.82H29.253V29H27.201V20.576H30.645C31.309 20.576 31.873 20.692 32.337 20.924C32.809 21.156 33.161 21.476 33.393 21.884C33.625 22.284 33.741 22.732 33.741 23.228C33.741 23.788 33.581 24.288 33.261 24.728C32.949 25.168 32.485 25.48 31.869 25.664L33.813 29H31.497ZM29.253 24.368H30.525C30.901 24.368 31.181 24.276 31.365 24.092C31.557 23.908 31.653 23.648 31.653 23.312C31.653 22.992 31.557 22.74 31.365 22.556C31.181 22.372 30.901 22.28 30.525 22.28H29.253V24.368Z" fill="black"/>
<path d="M21.5 12.5H12V21.5" stroke="black" stroke-width="2"/>
<path d="M39.2754 22.2258L39.2245 12.726L30.2246 12.7741" stroke="black" stroke-width="2"/>
<path d="M12.2804 28.7214L12.2198 38.2212L21.2196 38.2786" stroke="black" stroke-width="2"/>
<path d="M29.9928 37.9924L39.4928 38.0076L39.5072 29.0076" stroke="black" stroke-width="2"/>
</svg>
