<svg width="77" height="39" viewBox="0 0 77 39" fill="none" xmlns="http://www.w3.org/2000/svg">
<g clip-path="url(#clip0)">
<path d="M3 24.7813C4.14127 26.5964 5.40831 28.1998 7.19568 29.1951C10.8078 31.2066 15.4611 32.4251 19.4316 33.0752C21.8976 33.4789 24.6718 34.1773 27.1559 33.9374C30.6748 33.5976 35.7575 31.6544 38.0049 28.3123C43.486 20.1617 30.9685 16.2769 27.6825 23.1389C26.1425 26.3548 28.8381 30.042 30.9829 31.6381C34.615 34.3411 41.3561 35.8909 45.4132 34.4507C51.5848 32.2597 56.1242 27.3447 58.8604 20.7164C59.61 18.9008 59.8786 16.9953 59.8786 15.0092C59.8786 13.5051 60.3038 11.3001 59.5626 10" stroke="#FFEE51" stroke-width="4" stroke-linecap="round" stroke-linejoin="round"/>
<path d="M48 11.1367C51.1889 9.05475 54.2719 6.73129 57.4468 4.65845C58.6615 3.86539 59.1908 3.42885 60.4328 3.08857C61.2201 2.87289 61.6549 3.28198 62.2561 3.86549C64.692 6.22956 66.9958 9.33573 69.1485 12.0669C70.1383 13.3227 71.1846 14.7207 72.4069 15.6863C72.966 16.128 74.2242 16.1564 74.2853 16.9622" stroke="#FFEE51" stroke-width="4" stroke-linecap="round" stroke-linejoin="round"/>
</g>
<defs>
<clipPath id="clip0">
<rect width="77" height="39" fill="white"/>
</clipPath>
</defs>
</svg>
