<svg width="40" height="41" viewBox="0 0 40 41" fill="none" xmlns="http://www.w3.org/2000/svg">
<path d="M18.3763 1.3024C16.4659 2.78881 13.2798 5.64895 11.198 9.53195L19.9882 22.3333V3.00795L18.3763 1.3024Z" fill="#FC90D4"/>
<path d="M21.6192 1.28336L19.9883 3.00897V22.3344L28.7785 9.53305C27.0281 5.75801 23.6395 2.80534 21.6192 1.28336V1.28336Z" fill="#FFBFE7"/>
<path d="M20.0021 4.14483C21.9688 5.62646 25.2322 8.46392 27.0188 12.096L28.7786 9.53308C27.0282 5.75803 23.6395 2.80543 21.6192 1.28336L19.9883 3.00898V4.13287L20.0021 4.14483Z" fill="#FFB0E1"/>
<path d="M0.586365 17.4576C1.33214 19.8393 2.91845 23.9294 5.76529 27.2242L19.9883 22.3345L2.61751 16.3626L0.586365 17.4576Z" fill="#FC90D4"/>
<path d="M1.57043 14.1881L2.61753 16.3626L19.9883 22.3345L11.198 9.53299C7.26389 10.1279 3.56276 12.6255 1.57043 14.1881V14.1881Z" fill="#FC5DC2"/>
<path d="M9.60914 40.3513C11.9804 40.3369 16.147 40.0045 19.9882 38.1579V22.3344L9.2525 37.9691L9.60914 40.3513Z" fill="#FC90D4"/>
<path d="M6.9745 38.3508L9.2526 37.9691L19.9883 22.3344L5.76529 27.2241C5.08429 31.3668 6.18552 35.863 6.9745 38.3508Z" fill="#FFBFE7"/>
<path d="M32.9754 38.3464C33.6952 35.9557 34.6839 31.6602 34.2111 27.2241L19.9881 22.3344L30.7239 37.9691L32.9754 38.3464Z" fill="#FC90D4"/>
<path d="M34.2111 27.2241L31.2648 26.2112C31.7186 30.4892 30.8143 34.635 30.1041 37.0664L30.7239 37.9691L32.9754 38.3464C33.6952 35.9556 34.6839 31.6602 34.2111 27.2241V27.2241Z" fill="#FC7BCC"/>
<path d="M30.364 40.3795L30.7248 37.9691L19.9891 22.3344V38.1579C23.5023 40.1233 27.8841 40.4046 30.364 40.3795V40.3795Z" fill="#FC5DC2"/>
<path d="M30.364 40.3795L30.7248 37.9691L19.9891 22.3344V38.1579C23.5023 40.1233 27.8841 40.4046 30.364 40.3795V40.3795Z" fill="#FC5DC2"/>
<path d="M30.1029 37.0647L30.1026 37.0667C27.6836 37.0912 23.455 36.8242 19.9881 34.9869V38.1578C23.5014 40.1233 27.883 40.4045 30.363 40.3794L30.7238 37.969L30.1029 37.0647Z" fill="#FC44B9"/>
<path d="M38.3939 14.2139C36.4675 12.7507 32.912 10.4285 28.7785 9.53342L19.9883 22.3348L37.359 16.3629L38.3939 14.2139Z" fill="#FC90D4"/>
<path d="M28.7784 9.53296L27.0013 12.121C31.001 13.048 34.4328 15.2827 36.3276 16.7171L37.3589 16.3626L38.3938 14.2135C36.4674 12.7504 32.912 10.428 28.7784 9.53296V9.53296Z" fill="#FC7BCC"/>
<path d="M39.4141 17.4705L37.359 16.3625L19.9883 22.3344L34.2113 27.2241C37.0635 24.2963 38.6703 19.9738 39.4141 17.4705V17.4705Z" fill="#FFBFE7"/>
<path d="M37.3589 16.3625L36.2606 16.7401C35.5209 19.2028 33.9707 23.3264 31.2651 26.2114L34.2111 27.2242C37.0634 24.2963 38.6702 19.9738 39.414 17.4705L37.3589 16.3625Z" fill="#FFB0E1"/>
<path d="M39.6803 16.919L38.1465 16.0921L38.916 14.4941C39.0472 14.2218 38.9707 13.8891 38.7358 13.7107C36.9501 12.3545 33.3649 9.96597 29.1755 8.98934C27.3137 5.17864 23.873 2.22085 21.9593 0.77926C21.7261 0.603529 21.4069 0.631758 21.2045 0.845871L19.9882 2.13278L18.7909 0.866011C18.5862 0.64934 18.2623 0.623422 18.0289 0.80493C16.2581 2.18271 13.0032 5.05235 10.8309 8.96639C9.55593 9.18818 8.2122 9.61434 6.83191 10.2351C6.13488 10.5487 6.59378 11.6877 7.29088 11.3744C8.55376 10.8064 9.77764 10.4132 10.9346 10.2034L18.4556 21.1564L3.02962 15.8532L2.31892 14.3773C3.06188 13.8145 3.82703 13.2896 4.59905 12.8132C5.25326 12.4095 4.66225 11.3404 4.00804 11.7441C3.06001 12.3291 2.12237 12.9842 1.22121 13.691C0.991757 13.871 0.918633 14.1996 1.04824 14.4688L1.82995 16.0921L0.320126 16.9061C0.0624736 17.045 -0.0607277 17.3618 0.0301303 17.6519C0.72137 19.8596 2.29502 24.0219 5.14193 27.4174C4.531 31.6582 5.67161 36.191 6.41894 38.5474C6.50183 38.8088 6.80691 39.0057 7.06628 38.9621L8.76539 38.6773L9.03039 40.4478C9.07547 40.7488 9.32101 40.9702 9.60905 40.9702H9.61241C11.8105 40.9568 16.0379 40.6595 19.9697 38.8442C23.1389 40.528 26.8556 41.0337 30.3687 40.9983C30.6548 40.9954 30.8971 40.7746 30.9418 40.476L31.2111 38.6773L32.8836 38.9576C33.1459 39.0017 33.4538 38.7996 33.5338 38.5338C34.201 36.3178 35.2401 31.9719 34.8232 27.4544C37.6733 24.4034 39.2685 20.027 39.9731 17.6557C40.0586 17.3676 39.9349 17.0563 39.6803 16.919V16.919ZM36.9468 15.8532L21.521 21.1565L29.0284 10.2233C32.6721 11.0964 35.8434 13.0955 37.6416 14.4104L36.9468 15.8532ZM20.5741 3.26508L21.68 2.09497C23.539 3.54655 26.4597 6.18342 28.0939 9.47559L20.5741 20.4269V3.26508ZM11.8961 9.4954C13.8066 6.0984 16.5832 3.52476 18.3211 2.12114L19.4023 3.26508V20.4269L11.8961 9.4954ZM2.66728 17.0306L18.0946 22.3344L5.94739 26.5104C3.48414 23.5376 2.02893 19.9475 1.30456 17.7652L2.66728 17.0306ZM6.28738 27.6956L18.4554 23.5123L8.92086 37.3977L7.37666 37.6565C6.6791 35.3262 5.78083 31.3757 6.28738 27.6956V27.6956ZM9.86913 38.1253L19.4023 24.2419V37.7547C15.9698 39.3145 12.2939 39.6697 10.1085 39.7243L9.86913 38.1253ZM32.5652 37.6507L31.0556 37.3977L27.4451 32.1398C27.0002 31.4919 26.0518 32.2189 26.4965 32.8669L30.1073 38.1253L29.8624 39.7608C27.5524 39.7427 23.7249 39.4259 20.5741 37.7792V24.2419L24.6738 30.2123C25.1187 30.8601 26.0672 30.1332 25.6223 29.4852L21.521 23.5124L33.667 27.688C34.0084 31.625 33.1915 35.4345 32.5652 37.6507V37.6507ZM34.051 26.518L21.8818 22.3343L37.3091 17.0306L38.7028 17.7821C37.9727 20.101 36.505 23.8558 34.051 26.518Z" fill="black"/>
</svg>
