<svg width="28" height="18" viewBox="0 0 28 18" fill="none" xmlns="http://www.w3.org/2000/svg">
<path d="M15 5.50602C16.5256 4.40558 19.0109 3.17428 20.0018 1.44024C20.5345 0.50792 21.1545 1.28178 21.8445 1.70349C23.1763 2.51732 24.2992 3.80892 25.5886 4.71626C26.1268 5.09503 26.8201 5.71672 27.1096 6.29577M0.817566 13.4668C1.92749 14.2519 10.4765 19.0169 11.6602 16.4037M11.6602 16.4037C11.8305 16.0276 11.8483 15.4987 11.6694 14.7831C11.2455 13.0874 8.78784 11.968 9.5835 13.9933C10.0286 15.1263 10.763 15.9104 11.6602 16.4037ZM11.6602 16.4037C14.7696 18.1136 19.8333 16.33 21.5761 13.4668C22.9441 11.2195 21.5761 6.9325 21.5761 4.49999" stroke="#FFEE51" stroke-linecap="round" stroke-linejoin="round"/>
</svg>
