<svg width="185" height="72" viewBox="0 0 185 72" fill="none" xmlns="http://www.w3.org/2000/svg">
<path d="M2 42C5.61171 46.9119 9.62143 51.2509 15.2778 53.9444C26.7088 59.3878 41.4349 62.6853 54 64.4444C61.804 65.537 70.5833 67.4269 78.4444 66.7778C89.5806 65.8583 105.666 60.5995 112.778 51.5556C130.123 29.499 90.5099 18.9862 80.1111 37.5556C75.2376 46.2582 83.7681 56.2363 90.5556 60.5556C102.05 67.8702 123.383 72.0642 136.222 68.1667C155.753 62.2377 170.118 48.9371 178.778 31C181.15 26.0866 182 20.9301 182 15.5556C182 11.4852 183.345 5.51814 181 2" stroke="#FFEE51" stroke-width="4" stroke-linecap="round" stroke-linejoin="round"/>
</svg>
